<?xml version="1.0" encoding="UTF-8" standalone="no"?>
<!-- Created with Inkscape (http://www.inkscape.org/) -->

<svg
   xmlns:dc="http://purl.org/dc/elements/1.1/"
   xmlns:cc="http://creativecommons.org/ns#"
   xmlns:rdf="http://www.w3.org/1999/02/22-rdf-syntax-ns#"
   xmlns:svg="http://www.w3.org/2000/svg"
   xmlns="http://www.w3.org/2000/svg"
   xmlns:sodipodi="http://sodipodi.sourceforge.net/DTD/sodipodi-0.dtd"
   xmlns:inkscape="http://www.inkscape.org/namespaces/inkscape"
   width="128"
   height="128"
   viewBox="0 0 127.99999 127.99999"
   id="svg2"
   version="1.1"
   inkscape:version="0.91 r13725"
   sodipodi:docname="dl_button.svg">
  <defs
     id="defs4">
    <inkscape:perspective
       sodipodi:type="inkscape:persp3d"
       inkscape:vp_x="9.1923874 : 17.060124 : 1"
       inkscape:vp_y="0 : 718.28567 : 0"
       inkscape:vp_z="209.19237 : 17.060124 : 1"
       inkscape:persp3d-origin="109.19238 : 11.074411 : 1"
       id="perspective8176" />
  </defs>
  <sodipodi:namedview
     id="base"
     pagecolor="#ffffff"
     bordercolor="#666666"
     borderopacity="1.0"
     inkscape:pageopacity="0.0"
     inkscape:pageshadow="2"
     inkscape:zoom="1.4142136"
     inkscape:cx="160.21409"
     inkscape:cy="65.522791"
     inkscape:document-units="px"
     inkscape:current-layer="layer1"
     showgrid="false"
     units="px"
     inkscape:window-width="1920"
     inkscape:window-height="1017"
     inkscape:window-x="-8"
     inkscape:window-y="-8"
     inkscape:window-maximized="1" />
  <metadata
     id="metadata7">
    <rdf:RDF>
      <cc:Work
         rdf:about="">
        <dc:format>image/svg+xml</dc:format>
        <dc:type
           rdf:resource="http://purl.org/dc/dcmitype/StillImage" />
        <dc:title></dc:title>
      </cc:Work>
    </rdf:RDF>
  </metadata>
  <g
     inkscape:label="Calque 1"
     inkscape:groupmode="layer"
     id="layer1"
     transform="translate(0,-924.36221)">
    <rect
       style="opacity:0.67099998;fill:#225500;fill-opacity:0.65098039;stroke:#225500;stroke-width:5.31710243;stroke-linecap:round;stroke-linejoin:bevel;stroke-miterlimit:4;stroke-dasharray:none;stroke-dashoffset:27;stroke-opacity:1"
       id="rect8192"
       width="122.44074"
       height="122.97533"
       x="2.805151"
       y="926.99066"
       ry="0.945113"
       rx="0" />
    <path
       id="path8073"
       d="M 61.80646,992.82108 43.069299,970.17981 c 0,0 -2.850885,-2.6916 0.240554,-2.6916 3.091435,0 10.558343,0 10.558343,0 0,0 0,-1.81064 0,-4.60301 0,-7.96102 0,-22.4495 0,-28.35604 0,0 -0.419343,-1.60587 1.999195,-1.60587 2.438041,0 13.116663,0 14.8623,0 1.742389,0 1.703378,1.35231 1.703378,1.35231 0,5.72776 0,20.71684 0,28.41781 0,2.49654 0,4.1154 0,4.1154 0,0 5.987831,0 9.745664,0 3.751334,0 0.926457,2.81838 0.926457,2.81838 0,0 -15.941541,21.16218 -18.165034,23.38243 -1.599356,1.6091 -3.133696,-0.18844 -3.133696,-0.18844 z"
       inkscape:connector-curvature="0"
       style="fill:#2d5016" />
    <g
       id="g8075"
       style="fill:#e2e3db"
       transform="matrix(2.4195255,0,0,2.4195255,28.959488,953.79401)" />
    <g
       id="g8077"
       style="fill:#e2e3db"
       transform="matrix(2.4195255,0,0,2.4195255,28.959488,953.79401)" />
    <g
       id="g8079"
       style="fill:#e2e3db"
       transform="matrix(2.4195255,0,0,2.4195255,28.959488,953.79401)" />
    <g
       id="g8081"
       style="fill:#e2e3db"
       transform="matrix(2.4195255,0,0,2.4195255,28.959488,953.79401)" />
    <g
       id="g8083"
       style="fill:#e2e3db"
       transform="matrix(2.4195255,0,0,2.4195255,28.959488,953.79401)" />
    <g
       id="g8085"
       style="fill:#e2e3db"
       transform="matrix(2.4195255,0,0,2.4195255,28.959488,953.79401)" />
    <g
       id="g8087"
       style="fill:#e2e3db"
       transform="matrix(2.4195255,0,0,2.4195255,28.959488,953.79401)" />
    <g
       id="g8089"
       style="fill:#e2e3db"
       transform="matrix(2.4195255,0,0,2.4195255,28.959488,953.79401)" />
    <g
       id="g8091"
       style="fill:#e2e3db"
       transform="matrix(2.4195255,0,0,2.4195255,28.959488,953.79401)" />
    <g
       id="g8093"
       style="fill:#e2e3db"
       transform="matrix(2.4195255,0,0,2.4195255,28.959488,953.79401)" />
    <g
       id="g8095"
       style="fill:#e2e3db"
       transform="matrix(2.4195255,0,0,2.4195255,28.959488,953.79401)" />
    <g
       id="g8097"
       style="fill:#e2e3db"
       transform="matrix(2.4195255,0,0,2.4195255,28.959488,953.79401)" />
    <g
       id="g8099"
       style="fill:#e2e3db"
       transform="matrix(2.4195255,0,0,2.4195255,28.959488,953.79401)" />
    <g
       id="g8101"
       style="fill:#e2e3db"
       transform="matrix(2.4195255,0,0,2.4195255,28.959488,953.79401)" />
    <g
       id="g8103"
       style="fill:#e2e3db"
       transform="matrix(2.4195255,0,0,2.4195255,28.959488,953.79401)" />
    <g
       style="fill:#e2e3db"
       id="g8105"
       transform="matrix(2.4195255,0,0,2.4195255,28.959488,953.79401)" />
    <g
       style="fill:#e2e3db"
       id="g8107"
       transform="matrix(2.4195255,0,0,2.4195255,28.959488,953.79401)" />
    <g
       style="fill:#e2e3db"
       id="g8109"
       transform="matrix(2.4195255,0,0,2.4195255,28.959488,953.79401)" />
    <g
       style="fill:#e2e3db"
       id="g8111"
       transform="matrix(2.4195255,0,0,2.4195255,28.959488,953.79401)" />
    <g
       style="fill:#e2e3db"
       id="g8113"
       transform="matrix(2.4195255,0,0,2.4195255,28.959488,953.79401)" />
    <g
       style="fill:#e2e3db"
       id="g8115"
       transform="matrix(2.4195255,0,0,2.4195255,28.959488,953.79401)" />
    <g
       style="fill:#e2e3db"
       id="g8117"
       transform="matrix(2.4195255,0,0,2.4195255,28.959488,953.79401)" />
    <g
       style="fill:#e2e3db"
       id="g8119"
       transform="matrix(2.4195255,0,0,2.4195255,28.959488,953.79401)" />
    <g
       style="fill:#e2e3db"
       id="g8121"
       transform="matrix(2.4195255,0,0,2.4195255,28.959488,953.79401)" />
    <g
       style="fill:#e2e3db"
       id="g8123"
       transform="matrix(2.4195255,0,0,2.4195255,28.959488,953.79401)" />
    <g
       style="fill:#e2e3db"
       id="g8125"
       transform="matrix(2.4195255,0,0,2.4195255,28.959488,953.79401)" />
    <g
       style="fill:#e2e3db"
       id="g8127"
       transform="matrix(2.4195255,0,0,2.4195255,28.959488,953.79401)" />
    <g
       style="fill:#e2e3db"
       id="g8129"
       transform="matrix(2.4195255,0,0,2.4195255,28.959488,953.79401)" />
    <g
       style="fill:#e2e3db"
       id="g8131"
       transform="matrix(2.4195255,0,0,2.4195255,28.959488,953.79401)" />
    <g
       style="fill:#e2e3db"
       id="g8133"
       transform="matrix(2.4195255,0,0,2.4195255,28.959488,953.79401)" />
    <path
       style="fill:#e3dbdb;fill-rule:evenodd;stroke:#e3dbdb;stroke-width:1.52784419px;stroke-linecap:butt;stroke-linejoin:miter;stroke-opacity:1"
       d="m 20.288735,996.73626 10.380155,49.11164 67.71156,-0.1768 8.3085,-48.56965 -13.658342,0 0,44.09515 -58.80995,0.3171 -1.031262,-44.95399 z"
       id="path8194"
       inkscape:connector-curvature="0"
       sodipodi:nodetypes="ccccccccc" />
    <rect
       style="opacity:0.67099998;fill:#1f241c;fill-opacity:0.65098039;stroke:#3e4837;stroke-width:7.03960752;stroke-linecap:round;stroke-linejoin:bevel;stroke-miterlimit:4;stroke-dasharray:none;stroke-dashoffset:27;stroke-opacity:1"
       id="rect8246"
       width="40.133144"
       height="28.622087"
       x="43.942429"
       y="1005.4364"
       ry="1.1309816" />
  </g>
</svg>
